<?xml version="1.0" encoding="UTF-8"?>
<svg width="24" height="24" viewBox="0 0 24 24" fill="none" xmlns="http://www.w3.org/2000/svg">
    <path d="M15 10L19.553 7.724C19.7054 7.64784 19.8748 7.61188 20.0466 7.61952C20.2184 7.62716 20.3838 7.67814 20.5284 7.76773C20.673 7.85732 20.7918 7.98266 20.8743 8.13161C20.9569 8.28055 21.0005 8.44873 21 8.62V15.38C21.0005 15.5513 20.9569 15.7194 20.8743 15.8684C20.7918 16.0173 20.673 16.1427 20.5284 16.2323C20.3838 16.3219 20.2184 16.3728 20.0466 16.3805C19.8748 16.3881 19.7054 16.3522 19.553 16.276L15 14V10Z" stroke="white" stroke-width="2" stroke-linecap="round" stroke-linejoin="round"/>
    <path d="M13 6H5C3.89543 6 3 6.89543 3 8V16C3 17.1046 3.89543 18 5 18H13C14.1046 18 15 17.1046 15 16V8C15 6.89543 14.1046 6 13 6Z" stroke="white" stroke-width="2" stroke-linecap="round" stroke-linejoin="round"/>
</svg>
