<?xml version="1.0" encoding="UTF-8"?>
<svg width="120" height="120" viewBox="0 0 120 120" fill="none" xmlns="http://www.w3.org/2000/svg">
    <path d="M60 20C40 20 25 35 25 55C25 75 40 90 60 90C80 90 95 75 95 55C95 35 80 20 60 20Z" fill="#FF6B00"/>
    <path d="M45 45C45 42.2386 47.2386 40 50 40C52.7614 40 55 42.2386 55 45C55 47.7614 52.7614 50 50 50C47.2386 50 45 47.7614 45 45Z" fill="white"/>
    <path d="M65 45C65 42.2386 67.2386 40 70 40C72.7614 40 75 42.2386 75 45C75 47.7614 72.7614 50 70 50C67.2386 50 65 47.7614 65 45Z" fill="white"/>
    <path d="M50 65C50 62.2386 52.2386 60 55 60H65C67.7614 60 70 62.2386 70 65C70 67.7614 67.7614 70 65 70H55C52.2386 70 50 67.7614 50 65Z" fill="white"/>
</svg>
